<?xml version="1.0" encoding="UTF-8"?>
<svg version="1.1" xmlns="http://www.w3.org/2000/svg" width="244" height="310">
<path d="M0 0 C0 3.63 0 7.26 0 11 C-2.475 11.12375 -2.475 11.12375 -5 11.25 C-10.17148658 11.74252253 -14.98220596 12.51015662 -19 16 C-26.10795257 27.15753235 -26.10795257 27.15753235 -24 61 C17.25 61 58.5 61 101 61 C100.67 60.34 100.34 59.68 100 59 C99.89155809 56.3848889 99.83864358 53.79166418 99.82421875 51.17578125 C99.80100737 49.57355476 99.77688952 47.9713412 99.75195312 46.36914062 C99.71694272 43.84569824 99.68755464 41.32272714 99.67407227 38.79907227 C99.65850399 36.3615599 99.6182278 33.9254252 99.57421875 31.48828125 C99.57708138 30.37070183 99.57708138 30.37070183 99.58000183 29.23054504 C99.45361753 23.76036215 98.07128304 20.53894702 95 16 C89.68700721 11.38515103 82.70929475 11.33546474 76 11 C76 7.37 76 3.74 76 0 C85.58881656 -0.49812034 93.91088349 0.63022774 101.8125 6.5 C109.91591391 14.6927222 111.62948088 23.23346433 111.57261658 34.29418945 C111.52684309 36.94698431 111.45176637 39.59793917 111.375 42.25 C111.34484032 44.07417437 111.31747519 45.89839718 111.29296875 47.72265625 C111.22749884 52.14965432 111.12431799 56.57427961 111 61 C111.79301514 60.97099609 112.58603027 60.94199219 113.40307617 60.91210938 C123.02618274 60.70669123 129.67622077 62.51075914 137.16796875 68.828125 C146.11435243 78.21324392 146.58684973 88.97731629 146.51757812 101.30664062 C146.52300721 102.93719607 146.53013426 104.5677466 146.53881836 106.19828796 C146.55696132 110.60124313 146.55002178 115.00382089 146.53730202 119.40678215 C146.52712731 124.02921388 146.53658006 128.65161476 146.54284668 133.27404785 C146.55011012 141.03448243 146.54056969 148.79476441 146.52148438 156.55517578 C146.49971813 165.50871273 146.50677043 174.46188525 146.52879 183.41541338 C146.54698124 191.12274546 146.54948416 198.82996826 146.53903532 206.53731489 C146.53282082 211.13181494 146.53190821 215.72614408 146.54518127 220.32063293 C146.55679355 224.64153288 146.54861666 228.96196605 146.52560425 233.28281593 C146.52034572 234.86214742 146.52178161 236.44151865 146.53065491 238.02083397 C146.59390254 250.42828662 145.03024462 259.78406409 136.28515625 269.01953125 C128.97292113 275.35680169 121.17398723 277.04816219 111.73828125 277.31640625 C111.01796219 277.33727798 110.29764313 277.35814972 109.55549622 277.37965393 C107.14128083 277.44671857 104.72697487 277.5055695 102.3125 277.5625 C101.03061798 277.59376984 101.03061798 277.59376984 99.72283936 277.62567139 C77.81258574 278.14647119 55.9062884 278.16954031 33.99133301 278.02606201 C31.17289404 278.00765859 28.35446171 277.99021712 25.53601074 277.97393799 C15.67607534 277.91601825 5.816559 277.83650619 -4.04302979 277.73553467 C-7.32991765 277.70229034 -10.61676131 277.67544323 -13.90374756 277.65411377 C-17.80668279 277.62825477 -21.7092181 277.58786642 -25.61190414 277.53693962 C-27.05634636 277.52038497 -28.5008542 277.50869569 -29.94537735 277.50235176 C-41.89030474 277.44445137 -52.04929737 276.52722853 -61 268 C-69.88522933 258.26855835 -70.44428729 248.65867515 -70.40405273 236.02807617 C-70.40976148 234.40929189 -70.41672769 232.79051164 -70.42485046 231.17173767 C-70.44274386 226.79138883 -70.44162039 222.41124075 -70.43590808 218.03086638 C-70.43280987 214.3656281 -70.43891588 210.70042801 -70.44494683 207.03519517 C-70.45897868 198.38272452 -70.45744267 189.73035263 -70.44604492 181.07788086 C-70.43457225 172.17213136 -70.44862808 163.26668331 -70.4754414 154.36097354 C-70.49764633 146.69698799 -70.50422478 139.03309673 -70.49836498 131.36908132 C-70.49500478 126.79965801 -70.4973476 122.23042777 -70.51461601 117.66103172 C-70.53015909 113.36069318 -70.52604864 109.06079854 -70.50731087 104.76047707 C-70.50364487 103.18962306 -70.50667488 101.61873564 -70.51719666 100.0479126 C-70.58922471 88.39767272 -69.64451793 77.55869658 -61.16796875 68.79296875 C-52.81353722 61.88362808 -45.55759431 60.61386427 -35 61 C-35.02618408 59.87094238 -35.05236816 58.74188477 -35.0793457 57.57861328 C-35.17055425 53.34818719 -35.22750316 49.1178461 -35.2746582 44.88671875 C-35.29964279 43.06332738 -35.33364279 41.24003452 -35.37719727 39.41699219 C-35.6541753 27.51671255 -35.66898478 18.5193325 -27.5 9.125 C-26.675 8.42375 -25.85 7.7225 -25 7 C-24.2575 6.29875 -23.515 5.5975 -22.75 4.875 C-15.52918649 -0.04828194 -8.54922352 -0.32465406 0 0 Z " fill="#9657A2" transform="translate(85,2)"/>
<path d="M0 0 C3.95015831 1.93916862 5.58729478 2.93565495 7.1875 7.0625 C7.455625 8.031875 7.72375 9.00125 8 10 C8.78117187 10.66515625 8.78117187 10.66515625 9.578125 11.34375 C11 13 11 13 11.06640625 15.55859375 C9.72725102 23.20942633 9.72725102 23.20942633 7.51953125 25.609375 C5.875 26.6875 5.875 26.6875 3 28 C3.40774725 31.4250769 3.95815412 33.91965591 5.5625 37 C7.18452867 40.38510332 7.56347533 42.29716211 7 46 C5.70896357 47.3743291 4.3743291 48.70896357 3 50 C2.20318682 52.64184541 2.20318682 52.64184541 2 55 C-6.67982005 58.6823479 -15.40414099 59.63104333 -24.375 56.3125 C-31.42482361 53.08133084 -35.71311178 49.06072285 -39 42 C-39.75 38.625 -39.75 38.625 -40 35 C-40.11214844 33.89591797 -40.11214844 33.89591797 -40.2265625 32.76953125 C-40.50242048 28.43565725 -40.34422663 25.84414433 -37.5 22.4375 C-36.675 21.633125 -35.85 20.82875 -35 20 C-33.35 20.33 -31.7 20.66 -30 21 C-29.67 29.58 -29.34 38.16 -29 47 C-28.34 47 -27.68 47 -27 47 C-26.443125 45.4840625 -26.443125 45.4840625 -25.875 43.9375 C-24.29478401 40.19208421 -22.07091593 37.52326373 -19.3046875 34.578125 C-17.77209641 32.91755114 -17.77209641 32.91755114 -17 30 C-18.258125 29.7525 -19.51625 29.505 -20.8125 29.25 C-23.49240928 28.56466165 -24.79287497 28.18641252 -26.875 26.3125 C-28.35114531 23.2782013 -29.19574785 20.27445519 -30 17 C-30.28875 16.113125 -30.5775 15.22625 -30.875 14.3125 C-30.936875 13.1678125 -30.936875 13.1678125 -31 12 C-29.0625 9.875 -29.0625 9.875 -27 8 C-27 7.01 -27 6.02 -27 5 C-27.66 4.34 -28.32 3.68 -29 3 C-24.69230769 -0.07692308 -24.69230769 -0.07692308 -21.1875 0.3125 C-20.1046875 0.6528125 -20.1046875 0.6528125 -19 1 C-18.67 2.32 -18.34 3.64 -18 5 C-14.40413794 2.92097875 -14.40413794 2.92097875 -11.25 0.25 C-7.53701868 -1.8127674 -4.00873184 -1.01434116 0 0 Z " fill="#9858A3" transform="translate(135,143)"/>
<path d="M0 0 C7.6217621 5.58550028 15.35869158 13.27568883 17 23 C17.71002287 34.60614305 17.29707262 44.88059455 9.66015625 54.1875 C3.03863966 61.41663811 -4.89206804 66.40523477 -14.84765625 67.23828125 C-25.89285897 67.49327378 -34.44794907 65.15234685 -42.99609375 57.98046875 C-50.67897534 50.38744543 -54.07942471 41.73545376 -54.4375 31.0625 C-54.22178329 21.54014804 -51.01131385 13.08961563 -44.25 6.22265625 C-32.60657778 -4.53386467 -14.1652166 -8.90728027 0 0 Z M-21 7 C-21.99 7.33 -22.98 7.66 -24 8 C-24.33 6.68 -24.66 5.36 -25 4 C-28.38391693 2.93648325 -29.5804634 2.78557018 -32.8125 4.4375 C-33.8953125 5.2109375 -33.8953125 5.2109375 -35 6 C-34.34 6.66 -33.68 7.32 -33 8 C-33.25125398 10.59629112 -33.6547406 11.69457822 -35.625 13.4375 C-37.25474704 14.9200437 -37.25474704 14.9200437 -36.875 17.125 C-36.58625 18.07375 -36.2975 19.0225 -36 20 C-35.80019531 20.7321875 -35.60039063 21.464375 -35.39453125 22.21875 C-33.99656459 26.9869852 -33.99656459 26.9869852 -31.1875 31 C-28.48186691 32.23686084 -25.94559226 32.66527361 -23 33 C-24.9961099 36.69649982 -26.90930355 40.02972438 -29.6875 43.1875 C-31.73349007 45.6758663 -32.63989462 46.87908671 -33 50 C-33.66 50 -34.32 50 -35 50 C-35.33 41.42 -35.66 32.84 -36 24 C-37.65 23.67 -39.3 23.34 -41 23 C-44.41134099 26.32605747 -46.36060856 28.44270856 -46.4375 33.3125 C-45.93416971 41.19359277 -44.73250692 48.20973483 -39 54 C-30.91349524 60.28579855 -23.11520641 61.81595135 -13 61 C-9.7253264 60.43768231 -6.84184388 59.75985745 -4 58 C-2.52437773 55.07416306 -2.52437773 55.07416306 -2 52 C-1.46375 51.505 -0.9275 51.01 -0.375 50.5 C1.25216072 49.00020563 1.25216072 49.00020563 1.4375 46.3125 C1.02170439 43.16433324 0.41490484 41.65633529 -1.0625 38.9375 C-2.44761772 36.34535113 -2.99588597 35.18513124 -3.0625 32.1875 C-2 30 -2 30 0.5 28.625 C3.38572481 27.16595227 3.38572481 27.16595227 3.75 23.5625 C3.8325 22.386875 3.915 21.21125 4 20 C4.268125 19.278125 4.53625 18.55625 4.8125 17.8125 C4.9053125 16.9153125 4.9053125 16.9153125 5 16 C3.68945377 14.64426252 2.35251497 13.31387169 1 12 C0.7525 11.01 0.505 10.02 0.25 9 C-1.36726783 5.11855722 -3.14749097 4.31054989 -6.9140625 2.69921875 C-13.60757537 0.45551313 -16.17475618 2.60366675 -21 7 Z " fill="#FCFAFC" transform="translate(141,140)"/>
<path d="M0 0 C1.10794922 -0.01260864 2.21589844 -0.02521729 3.35742188 -0.03820801 C4.54916016 -0.03011108 5.74089844 -0.02201416 6.96875 -0.01367188 C8.19658203 -0.01749878 9.42441406 -0.02132568 10.68945312 -0.02526855 C13.28516459 -0.02799029 15.88090336 -0.02061099 18.4765625 -0.00390625 C22.45374599 0.01749738 26.42912282 -0.0037015 30.40625 -0.02929688 C32.92708733 -0.02665365 35.44792353 -0.02152878 37.96875 -0.01367188 C39.16048828 -0.0217688 40.35222656 -0.02986572 41.58007812 -0.03820801 C43.24200195 -0.01929504 43.24200195 -0.01929504 44.9375 0 C45.91138672 0.00318237 46.88527344 0.00636475 47.88867188 0.00964355 C51.22378677 0.66622063 52.41454287 1.85297037 54.46875 4.51757812 C54.96875 8.01757812 54.96875 8.01757812 54.46875 11.51757812 C52.41454287 14.18218588 51.22378677 15.36893562 47.88867188 16.0255127 C46.91478516 16.02869507 45.94089844 16.03187744 44.9375 16.03515625 C43.82955078 16.04776489 42.72160156 16.06037354 41.58007812 16.07336426 C40.38833984 16.06526733 39.19660156 16.05717041 37.96875 16.04882812 C36.12700195 16.05456848 36.12700195 16.05456848 34.24804688 16.0604248 C31.65233541 16.06314654 29.05659664 16.05576724 26.4609375 16.0390625 C22.48375401 16.01765887 18.50837718 16.03885775 14.53125 16.06445312 C12.01041267 16.0618099 9.48957647 16.05668503 6.96875 16.04882812 C5.77701172 16.05692505 4.58527344 16.06502197 3.35742188 16.07336426 C1.69549805 16.05445129 1.69549805 16.05445129 0 16.03515625 C-0.97388672 16.03197388 -1.94777344 16.0287915 -2.95117188 16.0255127 C-6.28628677 15.36893562 -7.47704287 14.18218588 -9.53125 11.51757812 C-10.03125 8.01757812 -10.03125 8.01757812 -9.53125 4.51757812 C-6.6331094 0.75826495 -4.68182166 0.01529881 0 0 Z " fill="#6652A2" transform="translate(100.53125,-0.517578125)"/>
<path d="M0 0 C12 4 12 4 13.5078125 6.80859375 C14.30832031 8.60490234 14.30832031 8.60490234 15.125 10.4375 C20.22906284 21.20892736 27.24347711 28.69655208 38 34 C38.80308594 34.40089844 39.60617188 34.80179688 40.43359375 35.21484375 C47.36188244 38.32980234 51.85332439 38.32111037 60 39 C60 50.88 60 62.76 60 75 C57.14549495 73.57274748 57.07961068 71.92639965 56.0546875 68.94140625 C55.70019531 67.91595703 55.34570312 66.89050781 54.98046875 65.83398438 C54.61566406 64.75439453 54.25085938 63.67480469 53.875 62.5625 C53.50246094 61.48677734 53.12992188 60.41105469 52.74609375 59.30273438 C50 51.29077953 50 51.29077953 50 49 C49.34515625 48.92523438 48.6903125 48.85046875 48.015625 48.7734375 C33.58906896 46.69503536 21.06708858 38.65376812 11.73046875 27.54296875 C6.62784393 20.04452912 0 9.16465166 0 0 Z " fill="#FBF8FB" transform="translate(63,182)"/>
<path d="M0 0 C12.21 0 24.42 0 37 0 C34.81715623 2.18284377 33.49010903 2.67707894 30.60546875 3.65625 C29.29545898 4.10677734 29.29545898 4.10677734 27.95898438 4.56640625 C27.04439453 4.87449219 26.12980469 5.18257812 25.1875 5.5 C23.38899489 6.11362273 21.59080775 6.72817838 19.79296875 7.34375 C18.9939917 7.61380859 18.19501465 7.88386719 17.37182617 8.16210938 C16.58912354 8.43861328 15.8064209 8.71511719 15 9 C14.09991211 9.30945557 13.19982422 9.61891113 12.27246094 9.93774414 C9.72996847 10.82064707 9.72996847 10.82064707 8.84765625 13.65234375 C8.58855469 14.73644531 8.32945312 15.82054687 8.0625 16.9375 C3.97305088 31.67249921 -5.01564395 43.76650911 -18 52 C-24.76479516 55.60289828 -31.46734239 58.52300831 -39 60 C-38.54554036 58.58208592 -38.08625056 57.16571954 -37.625 55.75 C-37.36976563 54.96109375 -37.11453125 54.1721875 -36.8515625 53.359375 C-34.69726351 47.39058329 -34.69726351 47.39058329 -32.1171875 45.9453125 C-31.37726563 45.67460937 -30.63734375 45.40390625 -29.875 45.125 C-19.16269115 40.67579824 -9.99391602 32.23119996 -5.33642578 21.53100586 C-2.36574999 14.21489675 -1.34656404 8.07938425 0 0 Z " fill="#FAF8FB" transform="translate(173,171)"/>
<path d="M0 0 C-2.13802817 9.26478873 -2.13802817 9.26478873 -5.125 11.8125 C-6.07375 12.204375 -7.0225 12.59625 -8 13 C-21.89665852 19.74194324 -31.9165798 30.36099658 -37.2734375 44.87109375 C-38.34664155 49.49279507 -38.57043779 54.27481574 -39 59 C-50.55 59 -62.1 59 -74 59 C-71.78035859 56.78035859 -70.19628099 56.15961366 -67.28125 55.0546875 C-66.34925781 54.70019531 -65.41726562 54.34570312 -64.45703125 53.98046875 C-63.48121094 53.61566406 -62.50539063 53.25085938 -61.5 52.875 C-60.52417969 52.50246094 -59.54835938 52.12992188 -58.54296875 51.74609375 C-51.27034684 49 -51.27034684 49 -49 49 C-48.93683594 48.44054687 -48.87367187 47.88109375 -48.80859375 47.3046875 C-46.36704987 31.31900018 -36.78844308 18.49626406 -24 9.0625 C-16.77187417 4.34750245 -8.80299019 0 0 0 Z " fill="#FBFAFC" transform="translate(112,112)"/>
<path d="M0 0 C2.80868131 4.21302197 4.33684725 8.78003497 6.125 13.5 C6.49753906 14.46292969 6.87007812 15.42585938 7.25390625 16.41796875 C7.60582031 17.34222656 7.95773438 18.26648438 8.3203125 19.21875 C8.64273926 20.06373047 8.96516602 20.90871094 9.29736328 21.77929688 C10 24 10 24 10 27 C10.83917969 27.09474609 10.83917969 27.09474609 11.6953125 27.19140625 C24.60564309 29.16324131 35.02603008 35.75213872 44 45 C44.96873047 45.95519531 44.96873047 45.95519531 45.95703125 46.9296875 C53.40822579 54.75425345 57.63193649 64.3385395 59 75 C57.57877902 74.5991428 56.16313294 74.17849837 54.75 73.75 C53.96109375 73.51796875 53.1721875 73.2859375 52.359375 73.046875 C47.54945365 70.91267149 45.45495505 67.32411682 43.1875 62.75 C36.26854456 49.80707838 25.82498452 42.60832817 12 38 C8.04 37.34 4.08 36.68 0 36 C0 24.12 0 12.24 0 0 Z " fill="#FCFBFD" transform="translate(123,85)"/>
<path d="M0 0 C6.6 0 13.2 0 20 0 C20.61405871 11.17586857 20.61405871 11.17586857 17.625 15.1875 C13.7777609 17.843927 11.71737862 18.54431292 7 18 C4.07062346 16.18689858 1.56352051 14.12704101 0 11 C-0.1377685 7.32984725 -0.04271961 3.67388652 0 0 Z " fill="#BF5FA5" transform="translate(166,284)"/>
<path d="M0 0 C6.6 0 13.2 0 20 0 C20.66964286 10.98214286 20.66964286 10.98214286 17.625 14.625 C14.78109632 17.19805571 13.94216397 17.91625209 10.1875 18.25 C6.58004558 17.9670624 4.87245763 17.15434322 2 15 C-1.16420858 10.25368713 -0.12112755 5.63243123 0 0 Z " fill="#BE60A4" transform="translate(60,284)"/>
<path d="M0 0 C-1.59092052 4.13639336 -4.60474918 7.23213248 -8 10 C-8.66 10 -9.32 10 -10 10 C-8.50006099 6.10015857 -4.53875449 0 0 0 Z " fill="#86499D" transform="translate(93,132)"/>
<path d="M0 0 C1.32 0.66 2.64 1.32 4 2 C1.31158141 4.25245881 -0.64641875 5.88213958 -4 7 C-3.43628586 3.73045798 -2.50037734 2.17424117 0 0 Z " fill="#8C4A9D" transform="translate(109,150)"/>
</svg>
